<svg id="Layer_1" data-name="Layer 1" xmlns="http://www.w3.org/2000/svg" viewBox="0 0 235.2 133.92"><defs><style>.cls-1{fill:#0e73ba;}.cls-2{fill:#fdfeff;}.cls-3{fill:#567bbe;}.cls-4{fill:#fff;}.cls-5{font-size:35.78px;fill:#0b74bb;font-family:Avenir-Medium, Avenir;font-weight:500;}</style></defs><circle class="cls-1" cx="48.29" cy="69.9" r="25.71"/><circle class="cls-2" cx="48.29" cy="69.9" r="18.24"/><circle class="cls-1" cx="48.29" cy="69.9" r="11.96"/><path class="cls-1" d="M27.05,84.39s13.11,19.94,23.33,35.87L71.54,80.89,54.34,93.42Z"/><path class="cls-1" d="M33.63,49.42V37S48.34,21.9,62.94,37V51.66Z"/><path class="cls-1" d="M64.68,34.94s-15.17-18.69-32.75,0v4.58L14.35,33.08,48.21,13.66,66.07,27.72l8.6.19v8l-9.62,3.66Z"/><polygon class="cls-1" points="76.52 28.08 76.52 35.67 87.07 31.87 76.52 28.08"/><polygon class="cls-3" points="74.67 35.86 74.67 41.63 73.38 41.63 73.38 36.36 74.67 35.86"/><rect class="cls-1" x="71.9" y="41.63" width="4.63" height="4.01"/><polygon class="cls-1" points="42.87 81.17 35.87 88 30.21 84.05 21.02 88 25.03 77.9 14.42 70.76 52.85 69.37 42.87 81.17"/><polygon class="cls-4" points="30.33 77.9 35.99 82.61 48.96 70.4 23.02 72.74 27.74 76.51 39.76 73.81 30.33 77.9"/><polygon class="cls-4" points="27.27 82.61 31.27 80.82 30.33 77.9 27.27 82.61"/><text class="cls-5" transform="translate(87.07 88)">Rawdati</text></svg>